<svg width="16" height="16" viewBox="0 0 16 16" fill="none" xmlns="http://www.w3.org/2000/svg">
<path d="M8.0013 0.666016C3.95121 0.666016 0.667969 3.94926 0.667969 7.99935C0.667969 12.0494 3.95121 15.3327 8.0013 15.3327C12.0514 15.3327 15.3346 12.0494 15.3346 7.99935H14.3346C14.3346 11.4972 11.4991 14.3327 8.0013 14.3327C4.5035 14.3327 1.66797 11.4972 1.66797 7.99935C1.66797 4.50155 4.5035 1.66602 8.0013 1.66602V0.666016Z" fill="#434F64"/>
<path d="M8.0013 5.08488C6.39168 5.08488 5.08683 6.38973 5.08683 7.99935C5.08683 9.60897 6.39168 10.9138 8.0013 10.9138C9.61092 10.9138 10.9158 9.60897 10.9158 7.99935H9.91578C9.91578 9.05668 9.05864 9.91382 8.0013 9.91382C6.94397 9.91382 6.08683 9.05668 6.08683 7.99935C6.08683 6.94201 6.94397 6.08488 8.0013 6.08487V5.08488Z" fill="#434F64"/>
</svg>