<svg width="173" height="32" viewBox="0 0 173 32" fill="none" xmlns="http://www.w3.org/2000/svg">
<path d="M0 18.0131L3.21835 21.5004L18.8375 4.57597L15.6191 1.08866L0 18.0131Z" fill="#FFBE07"/>
<path d="M7.46993 16.9244L10.6883 20.4117L26.3074 3.4873L23.089 0L7.46993 16.9244Z" fill="#211F1F"/>
<path d="M9.69506 28.5127L12.9134 32L28.5325 15.0756L25.3142 11.5883L9.69506 28.5127Z" fill="#211F1F"/>
<path d="M8.57175 22.7073L11.7901 26.1946L27.4092 9.27025L24.1909 5.78294L8.57175 22.7073Z" fill="#FFBE07"/>
<path d="M17.1575 27.4031L20.3722 30.8864L36 13.9526L32.7535 10.4693L17.1575 27.4031Z" fill="#FFBE07"/>
<path d="M51.0074 12.1885V14.591H55.5441V17.5654H51.0074V22.8852H48V9.21403H56.2577V12.1885H51.0074Z" fill="#211F1F"/>
<path d="M64.668 22.8853L62.5271 17.7944H61.5077V22.8853H58.5002V9.21418H63.3427C64.6171 9.21418 65.6365 9.67179 66.4011 10.5298C67.1148 11.3878 67.5226 12.4175 67.5226 13.6187C67.5226 14.4767 67.3187 15.2203 66.9619 15.7923C66.5541 16.4216 66.0953 16.8792 65.5346 17.1652L68.1852 22.8853H64.668ZM63.1898 12.2459H61.5077V14.9915H63.1898C63.5976 14.9915 63.9034 14.8771 64.1583 14.5911C64.4132 14.3051 64.5151 14.0191 64.5151 13.6187C64.5151 13.2755 64.4132 12.9323 64.1583 12.6463C63.9034 12.3603 63.5976 12.2459 63.1898 12.2459Z" fill="#211F1F"/>
<path d="M70.0203 22.8853V9.21418H78.2781V12.1887H72.9768V14.4767H77.5135V17.4512H72.9768V19.8536H78.2781V22.8281H70.0203V22.8853Z" fill="#211F1F"/>
<path d="M80.7251 22.8853V9.21418H83.7325V22.8853H80.7251Z" fill="#211F1F"/>
<path d="M94.2841 21.4556C93.8253 22.0276 93.2646 22.428 92.7039 22.6568C92.1432 22.8856 91.4806 23 90.7669 23C89.4416 23 88.3712 22.5996 87.6575 21.7416C86.8929 20.8835 86.4851 20.0827 86.3832 19.3391C86.2812 18.5383 86.1793 17.4515 86.1793 16.0786C86.1793 14.6486 86.2303 13.5046 86.3832 12.7609C86.4851 12.0173 86.842 11.3309 87.3517 10.7589C87.8614 10.1869 88.3712 9.78647 88.9319 9.50046C89.4926 9.21446 90.1043 9.10005 90.8179 9.10005C92.2452 9.10005 93.3666 9.55766 94.1822 10.4157C94.9468 11.2737 95.4565 12.3605 95.6094 13.619H92.602C92.5 13.1042 92.2961 12.7037 92.0413 12.4749C91.7864 12.2461 91.3786 12.1317 90.8689 12.1317C90.614 12.1317 90.3591 12.1889 90.1552 12.3033C89.9513 12.4177 89.7984 12.5893 89.6455 12.7609C89.4926 12.9897 89.3906 13.2758 89.3397 13.7334C89.2887 14.1338 89.2377 14.9346 89.2377 16.0786C89.2377 17.2227 89.2887 18.0235 89.3397 18.4811C89.3906 18.9387 89.5436 19.2819 89.7475 19.5679C89.9514 19.8539 90.3082 20.0255 90.8689 20.0255C91.4806 20.0255 91.8884 19.9111 92.0922 19.6251C92.2961 19.3391 92.4491 19.1103 92.551 18.8243C92.653 18.5383 92.653 18.3095 92.653 18.0235V17.7947H90.8689V14.9918H95.6604V16.8794C95.6604 18.0235 95.5585 18.9387 95.4055 19.6251C95.0997 20.3115 94.7938 20.9407 94.2841 21.4556Z" fill="#211F1F"/>
<path d="M104.122 22.8853V17.4512H100.962V22.8853H97.9544V9.21418H100.962V14.4767H104.122V9.21418H107.13V22.8853H104.122Z" fill="#211F1F"/>
<path d="M115.183 12.1887V22.8853H112.176V12.1887H109.169V9.21418H118.14V12.1887H115.183Z" fill="#211F1F"/>
<path d="M131.049 12.0888V22.7855H128.041V12.0888H125.034V9.11436H134.005V12.0888H131.049Z" fill="#211F1F"/>
<path d="M135.432 22.7854V9.11422H138.44V22.7854H135.432Z" fill="#211F1F"/>
<path d="M148.991 21.3555C148.533 21.9275 147.972 22.3279 147.411 22.5567C146.851 22.7855 146.188 22.8999 145.474 22.8999C144.149 22.8999 143.079 22.4995 142.365 21.6415C141.6 20.7835 141.192 19.9827 141.091 19.2391C140.989 18.4382 140.887 17.3514 140.887 15.9786C140.887 14.5485 140.938 13.4045 141.091 12.6609C141.192 11.9173 141.549 11.2309 142.059 10.6588C142.569 10.0868 143.079 9.68642 143.639 9.40041C144.2 9.1144 144.812 9 145.525 9C146.953 9 148.074 9.45761 148.89 10.3156C149.654 11.1737 150.164 12.2605 150.317 13.5189H147.309C147.207 13.0041 147.003 12.6037 146.749 12.3749C146.494 12.1461 146.086 12.0317 145.576 12.0317C145.321 12.0317 145.066 12.0889 144.863 12.2033C144.659 12.3177 144.506 12.4893 144.353 12.6609C144.2 12.8897 144.098 13.1757 144.047 13.6333C143.996 14.0337 143.945 14.8345 143.945 15.9786C143.945 17.1226 143.996 17.9234 144.047 18.381C144.098 18.8386 144.251 19.1819 144.455 19.4679C144.659 19.7539 145.016 19.9255 145.576 19.9255C146.188 19.9255 146.596 19.8111 146.8 19.5251C147.003 19.2391 147.156 19.0103 147.258 18.7242C147.309 18.4954 147.36 18.2094 147.36 17.9234V17.7518H145.576V14.9489H150.368V16.8366C150.368 17.9806 150.266 18.8958 150.113 19.5823C149.96 20.2687 149.45 20.7835 148.991 21.3555Z" fill="#211F1F"/>
<path d="M152.611 22.7854V9.11422H160.868V12.0887H155.567V14.3767H160.104V17.3512H155.567V19.7537H160.868V22.7282H152.611V22.7854Z" fill="#211F1F"/>
<path d="M169.483 22.7854L167.342 17.6944H166.322V22.7854H163.315V9.11422H168.158C169.432 9.11422 170.451 9.57183 171.216 10.4299C171.93 11.2879 172.337 12.3175 172.337 13.5187C172.337 14.3768 172.133 15.1204 171.777 15.6924C171.369 16.3216 170.91 16.7792 170.349 17.0652L173 22.7854H169.483ZM168.056 12.0887H166.373V14.8344H168.056C168.463 14.8344 168.769 14.72 169.024 14.434C169.279 14.1479 169.381 13.8619 169.381 13.4615C169.381 13.0611 169.279 12.7751 169.024 12.4891C168.769 12.2603 168.412 12.0887 168.056 12.0887Z" fill="#211F1F"/>
</svg>
