<svg width="21" height="21" viewBox="0 0 21 21" fill="none" xmlns="http://www.w3.org/2000/svg">
<path d="M20.3689 10.7285C20.3698 10.0471 20.3117 9.36688 20.1955 8.69531H10.6997V12.5465H16.1385C16.0272 13.1616 15.7916 13.7479 15.446 14.2702C15.1004 14.7924 14.6518 15.2398 14.1274 15.5852V18.0851H17.3733C19.2739 16.3449 20.3689 13.7714 20.3689 10.7285Z" fill="#4285F4"/>
<path d="M10.6998 20.4998C13.4171 20.4998 15.705 19.6137 17.3734 18.086L14.1275 15.5861C13.2241 16.1944 12.0605 16.5416 10.6998 16.5416C8.0734 16.5416 5.8442 14.7834 5.04706 12.4141H1.70325V14.9903C2.54132 16.6465 3.82641 18.0387 5.41506 19.0116C7.0037 19.9844 8.83336 20.4997 10.6998 20.4998Z" fill="#34A853"/>
<path d="M5.04698 12.4136C4.62556 11.1721 4.62556 9.82757 5.04698 8.58603V6.00977H1.70317C0.998154 7.40296 0.630981 8.94059 0.630981 10.4998C0.630981 12.059 0.998154 13.5967 1.70317 14.9899L5.04698 12.4136Z" fill="#FBBC04"/>
<path d="M10.6998 4.45879C12.1357 4.43549 13.5233 4.97429 14.5624 5.95872L17.4363 3.10469C15.614 1.40488 13.1998 0.471659 10.6998 0.500656C8.83336 0.500741 7.0037 1.01598 5.41506 1.98886C3.82641 2.96174 2.54132 4.35397 1.70325 6.0101L5.04706 8.58636C5.8442 6.21704 8.0734 4.45879 10.6998 4.45879Z" fill="#EA4335"/>
</svg>
