<svg width="23" height="24" viewBox="0 0 23 24" fill="none" xmlns="http://www.w3.org/2000/svg">
<path d="M8 1.5H2.16667C1.52233 1.5 1 2.02233 1 2.66667V8.5C1 9.14433 1.52233 9.66667 2.16667 9.66667H8C8.64433 9.66667 9.16667 9.14433 9.16667 8.5V2.66667C9.16667 2.02233 8.64433 1.5 8 1.5Z" stroke="#434F64" stroke-width="2" stroke-linecap="round" stroke-linejoin="round"/>
<path d="M20.8333 1.5H15C14.3557 1.5 13.8333 2.02233 13.8333 2.66667V8.5C13.8333 9.14433 14.3557 9.66667 15 9.66667H20.8333C21.4777 9.66667 22 9.14433 22 8.5V2.66667C22 2.02233 21.4777 1.5 20.8333 1.5Z" stroke="#434F64" stroke-width="2" stroke-linecap="round" stroke-linejoin="round"/>
<path d="M20.8333 14.3333H15C14.3557 14.3333 13.8333 14.8557 13.8333 15.5V21.3333C13.8333 21.9777 14.3557 22.5 15 22.5H20.8333C21.4777 22.5 22 21.9777 22 21.3333V15.5C22 14.8557 21.4777 14.3333 20.8333 14.3333Z" stroke="#434F64" stroke-width="2" stroke-linecap="round" stroke-linejoin="round"/>
<path d="M8 14.3333H2.16667C1.52233 14.3333 1 14.8557 1 15.5V21.3333C1 21.9777 1.52233 22.5 2.16667 22.5H8C8.64433 22.5 9.16667 21.9777 9.16667 21.3333V15.5C9.16667 14.8557 8.64433 14.3333 8 14.3333Z" stroke="#434F64" stroke-width="2" stroke-linecap="round" stroke-linejoin="round"/>
</svg>