<svg width="40" height="40" viewBox="0 0 40 40" fill="none" xmlns="http://www.w3.org/2000/svg">
<path opacity="0.4" fill-rule="evenodd" clip-rule="evenodd" d="M15.4345 7.07245L12.4569 8.56119L25.7339 15.2889L29.1215 13.5902L15.4345 7.07245ZM15.4167 5.21799L8.75002 8.55122L25.73 17.1554L32.9167 13.5515L15.4167 5.21799Z" fill="#434F64"/>
<path opacity="0.4" fill-rule="evenodd" clip-rule="evenodd" d="M29.5833 24.1867L26.2499 25.8534V17.8072L29.5833 15.7239V24.1867ZM31.2499 12.7168V25.2168L24.5833 28.5501V16.8835L31.2499 12.7168Z" fill="#434F64"/>
<path fill-rule="evenodd" clip-rule="evenodd" d="M19.8869 2.41856C20.2226 2.26152 20.6106 2.26152 20.9463 2.41856L36.7796 9.82597C37.2191 10.0316 37.4999 10.473 37.4999 10.9582V28.2421C37.4999 28.6995 37.2502 29.1203 36.8488 29.3393L21.0154 37.9813C20.6422 38.1851 20.191 38.1851 19.8177 37.9813L3.98439 29.3393C3.58298 29.1203 3.33325 28.6995 3.33325 28.2421V10.9582C3.33325 10.473 3.61406 10.0316 4.05356 9.82597L19.8869 2.41856ZM20.4166 4.93081L7.34961 11.044L20.4166 18.1761L33.4836 11.044L20.4166 4.93081ZM34.9999 13.0645L21.6666 20.342V34.7778L34.9999 27.5003V13.0645ZM19.1666 34.7778V20.342L5.83325 13.0645V27.5003L19.1666 34.7778Z" fill="#434F64"/>
</svg>
