<svg xmlns="http://www.w3.org/2000/svg" xmlns:xlink="http://www.w3.org/1999/xlink" width="500" zoomAndPan="magnify" viewBox="0 0 375 374.999991" height="500" preserveAspectRatio="xMidYMid meet" version="1.0"><defs><g/><clipPath id="744603ac42"><path d="M 0.898438 0.503906 L 79.011719 0.503906 L 79.011719 78.621094 L 0.898438 78.621094 Z M 0.898438 0.503906 " clip-rule="nonzero"/></clipPath><clipPath id="5f162af2ec"><path d="M 61 71 L 75 71 L 75 85 L 61 85 Z M 61 71 " clip-rule="nonzero"/></clipPath><clipPath id="04b6b90866"><path d="M 60.355469 76.199219 L 64.734375 71.820312 L 74.738281 81.824219 L 70.359375 86.203125 Z M 60.355469 76.199219 " clip-rule="nonzero"/></clipPath><clipPath id="b94c466853"><path d="M 60.355469 76.199219 L 70.359375 66.191406 L 80.367188 76.199219 L 70.359375 86.203125 Z M 60.355469 76.199219 " clip-rule="nonzero"/></clipPath><clipPath id="4b2da8433e"><path d="M 69 67 L 84 67 L 84 83 L 69 83 Z M 69 67 " clip-rule="nonzero"/></clipPath><clipPath id="c04d6c7fa3"><path d="M 74.050781 84.371094 L 69.011719 79.835938 L 80.054688 67.566406 L 85.09375 72.101562 Z M 74.050781 84.371094 " clip-rule="nonzero"/></clipPath><clipPath id="edad1e763c"><path d="M 74.050781 84.371094 L 61.78125 73.328125 L 72.824219 61.058594 L 85.09375 72.101562 Z M 74.050781 84.371094 " clip-rule="nonzero"/></clipPath><clipPath id="efd9772ed2"><path d="M 71 59 L 83 59 L 83 71 L 71 71 Z M 71 59 " clip-rule="nonzero"/></clipPath><clipPath id="707f203c98"><path d="M 71.128906 63.089844 L 74.960938 59.261719 L 82.472656 66.769531 L 78.640625 70.601562 Z M 71.128906 63.089844 " clip-rule="nonzero"/></clipPath><clipPath id="41bfd41426"><path d="M 0 0.199219 L 11.519531 0.199219 L 11.519531 11.71875 L 0 11.71875 Z M 0 0.199219 " clip-rule="nonzero"/></clipPath><clipPath id="167e9d51b5"><path d="M 0.128906 4.089844 L 3.960938 0.261719 L 11.472656 7.769531 L 7.640625 11.601562 Z M 0.128906 4.089844 " clip-rule="nonzero"/></clipPath><clipPath id="ad2cdcec63"><rect x="0" width="12" y="0" height="12"/></clipPath><clipPath id="33a355f365"><rect x="0" width="103" y="0" height="102"/></clipPath></defs><g fill="#3b1344" fill-opacity="0.4"><g transform="translate(42.579993, 210.33926)"><g/></g></g><g fill="#3b1344" fill-opacity="0.4"><g transform="translate(64.82092, 210.33926)"><g/></g></g><g fill="#3b1344" fill-opacity="0.4"><g transform="translate(87.061848, 210.33926)"><g/></g></g><g fill="#3b1344" fill-opacity="0.4"><g transform="translate(109.306551, 210.33926)"><g><path d="M 14.671875 -19.5625 C 14.671875 -17.125 15.253906 -14.921875 16.421875 -12.953125 C 17.597656 -10.992188 19.191406 -9.441406 21.203125 -8.296875 C 23.222656 -7.148438 25.457031 -6.578125 27.90625 -6.578125 C 30.445312 -6.578125 32.75 -7.132812 34.8125 -8.25 C 36.875 -9.375 38.488281 -10.929688 39.65625 -12.921875 C 40.832031 -14.910156 41.421875 -17.125 41.421875 -19.5625 L 41.421875 -55.265625 L 48.6875 -55.265625 L 48.6875 -19.34375 C 48.6875 -15.414062 47.769531 -11.9375 45.9375 -8.90625 C 44.101562 -5.875 41.601562 -3.53125 38.4375 -1.875 C 35.28125 -0.21875 31.769531 0.609375 27.90625 0.609375 C 24.082031 0.609375 20.585938 -0.21875 17.421875 -1.875 C 14.265625 -3.53125 11.78125 -5.875 9.96875 -8.90625 C 8.164062 -11.9375 7.265625 -15.414062 7.265625 -19.34375 L 7.265625 -55.265625 L 14.671875 -55.265625 Z M 14.671875 -19.5625 "/></g></g></g><g fill="#3b1344" fill-opacity="0.4"><g transform="translate(163.036524, 210.33926)"><g><path d="M 32.5625 -28.65625 C 35.71875 -27.4375 38.210938 -25.691406 40.046875 -23.421875 C 41.890625 -21.160156 42.8125 -18.523438 42.8125 -15.515625 C 42.8125 -12.003906 41.957031 -9.085938 40.25 -6.765625 C 38.539062 -4.441406 36.296875 -2.734375 33.515625 -1.640625 C 30.742188 -0.546875 27.703125 0 24.390625 0 L 7.953125 0 L 7.953125 -55.265625 L 22.25 -55.265625 C 27.90625 -55.265625 32.285156 -54.101562 35.390625 -51.78125 C 38.492188 -49.46875 40.046875 -45.992188 40.046875 -41.359375 C 40.046875 -38.453125 39.394531 -35.914062 38.09375 -33.75 C 36.800781 -31.582031 34.957031 -29.882812 32.5625 -28.65625 Z M 15.359375 -31.109375 L 23.765625 -31.109375 C 26.617188 -31.109375 28.769531 -31.921875 30.21875 -33.546875 C 31.675781 -35.179688 32.40625 -37.273438 32.40625 -39.828125 C 32.40625 -42.628906 31.539062 -44.71875 29.8125 -46.09375 C 28.082031 -47.46875 25.660156 -48.15625 22.546875 -48.15625 L 15.359375 -48.15625 Z M 24.078125 -6.875 C 27.285156 -6.875 29.929688 -7.597656 32.015625 -9.046875 C 34.109375 -10.503906 35.15625 -12.632812 35.15625 -15.4375 C 35.15625 -18.34375 34.019531 -20.484375 31.75 -21.859375 C 29.488281 -23.234375 26.753906 -23.921875 23.546875 -23.921875 L 15.359375 -23.921875 L 15.359375 -6.875 Z M 24.078125 -6.875 "/></g></g></g><g fill="#3b1344" fill-opacity="0.4"><g transform="translate(208.129939, 210.33926)"><g><path d="M 43.875 -55.265625 L 43.875 -48.15625 L 15.359375 -48.15625 L 15.359375 -31.34375 L 40.8125 -31.34375 L 40.8125 -24.234375 L 15.359375 -24.234375 L 15.359375 -7.1875 L 44.9375 -7.1875 L 44.9375 0 L 7.953125 0 L 7.953125 -55.265625 Z M 43.875 -55.265625 "/></g></g></g><g fill="#3b1344" fill-opacity="0.4"><g transform="translate(255.821964, 210.33926)"><g><path d="M 38.375 0 L 25.375 -20.40625 C 24.96875 -20.351562 24.359375 -20.328125 23.546875 -20.328125 L 15.359375 -20.328125 L 15.359375 0 L 7.953125 0 L 7.953125 -55.265625 L 22.703125 -55.265625 C 26.472656 -55.265625 29.832031 -54.601562 32.78125 -53.28125 C 35.738281 -51.957031 38.054688 -50.003906 39.734375 -47.421875 C 41.421875 -44.847656 42.265625 -41.753906 42.265625 -38.140625 C 42.265625 -34.722656 41.515625 -31.585938 40.015625 -28.734375 C 38.515625 -25.878906 36.207031 -23.71875 33.09375 -22.25 L 47.015625 0 Z M 23.390625 -27.515625 C 27.367188 -27.515625 30.234375 -28.554688 31.984375 -30.640625 C 33.742188 -32.734375 34.625 -35.132812 34.625 -37.84375 C 34.625 -39.46875 34.253906 -41.066406 33.515625 -42.640625 C 32.773438 -44.222656 31.601562 -45.535156 30 -46.578125 C 28.394531 -47.628906 26.367188 -48.15625 23.921875 -48.15625 L 15.359375 -48.15625 L 15.359375 -27.515625 Z M 23.390625 -27.515625 "/></g></g></g><g fill="#3b1344" fill-opacity="0.4"><g transform="translate(304.049, 210.33926)"><g><path d="M 36.921875 -14.515625 L 15.671875 -14.515625 L 9.78125 0 L 2.453125 0 L 26.59375 -57.5625 L 27.0625 -57.5625 L 51.21875 0 L 42.65625 0 Z M 34.390625 -20.9375 L 26.53125 -41.125 L 18.34375 -20.9375 Z M 34.390625 -20.9375 "/></g></g></g><g fill="#ffffff" fill-opacity="1"><g transform="translate(39.202055, 206.961315)"><g/></g></g><g fill="#ffffff" fill-opacity="1"><g transform="translate(61.442983, 206.961315)"><g/></g></g><g fill="#ffffff" fill-opacity="1"><g transform="translate(83.68391, 206.961315)"><g/></g></g><g fill="#3b1344" fill-opacity="1"><g transform="translate(105.928613, 206.961315)"><g><path d="M 14.671875 -19.5625 C 14.671875 -17.125 15.253906 -14.921875 16.421875 -12.953125 C 17.597656 -10.992188 19.191406 -9.441406 21.203125 -8.296875 C 23.222656 -7.148438 25.457031 -6.578125 27.90625 -6.578125 C 30.445312 -6.578125 32.75 -7.132812 34.8125 -8.25 C 36.875 -9.375 38.488281 -10.929688 39.65625 -12.921875 C 40.832031 -14.910156 41.421875 -17.125 41.421875 -19.5625 L 41.421875 -55.265625 L 48.6875 -55.265625 L 48.6875 -19.34375 C 48.6875 -15.414062 47.769531 -11.9375 45.9375 -8.90625 C 44.101562 -5.875 41.601562 -3.53125 38.4375 -1.875 C 35.28125 -0.21875 31.769531 0.609375 27.90625 0.609375 C 24.082031 0.609375 20.585938 -0.21875 17.421875 -1.875 C 14.265625 -3.53125 11.78125 -5.875 9.96875 -8.90625 C 8.164062 -11.9375 7.265625 -15.414062 7.265625 -19.34375 L 7.265625 -55.265625 L 14.671875 -55.265625 Z M 14.671875 -19.5625 "/></g></g></g><g fill="#3b1344" fill-opacity="1"><g transform="translate(159.658586, 206.961315)"><g><path d="M 32.5625 -28.65625 C 35.71875 -27.4375 38.210938 -25.691406 40.046875 -23.421875 C 41.890625 -21.160156 42.8125 -18.523438 42.8125 -15.515625 C 42.8125 -12.003906 41.957031 -9.085938 40.25 -6.765625 C 38.539062 -4.441406 36.296875 -2.734375 33.515625 -1.640625 C 30.742188 -0.546875 27.703125 0 24.390625 0 L 7.953125 0 L 7.953125 -55.265625 L 22.25 -55.265625 C 27.90625 -55.265625 32.285156 -54.101562 35.390625 -51.78125 C 38.492188 -49.46875 40.046875 -45.992188 40.046875 -41.359375 C 40.046875 -38.453125 39.394531 -35.914062 38.09375 -33.75 C 36.800781 -31.582031 34.957031 -29.882812 32.5625 -28.65625 Z M 15.359375 -31.109375 L 23.765625 -31.109375 C 26.617188 -31.109375 28.769531 -31.921875 30.21875 -33.546875 C 31.675781 -35.179688 32.40625 -37.273438 32.40625 -39.828125 C 32.40625 -42.628906 31.539062 -44.71875 29.8125 -46.09375 C 28.082031 -47.46875 25.660156 -48.15625 22.546875 -48.15625 L 15.359375 -48.15625 Z M 24.078125 -6.875 C 27.285156 -6.875 29.929688 -7.597656 32.015625 -9.046875 C 34.109375 -10.503906 35.15625 -12.632812 35.15625 -15.4375 C 35.15625 -18.34375 34.019531 -20.484375 31.75 -21.859375 C 29.488281 -23.234375 26.753906 -23.921875 23.546875 -23.921875 L 15.359375 -23.921875 L 15.359375 -6.875 Z M 24.078125 -6.875 "/></g></g></g><g fill="#3b1344" fill-opacity="1"><g transform="translate(204.752001, 206.961315)"><g><path d="M 43.875 -55.265625 L 43.875 -48.15625 L 15.359375 -48.15625 L 15.359375 -31.34375 L 40.8125 -31.34375 L 40.8125 -24.234375 L 15.359375 -24.234375 L 15.359375 -7.1875 L 44.9375 -7.1875 L 44.9375 0 L 7.953125 0 L 7.953125 -55.265625 Z M 43.875 -55.265625 "/></g></g></g><g fill="#3b1344" fill-opacity="1"><g transform="translate(252.444026, 206.961315)"><g><path d="M 38.375 0 L 25.375 -20.40625 C 24.96875 -20.351562 24.359375 -20.328125 23.546875 -20.328125 L 15.359375 -20.328125 L 15.359375 0 L 7.953125 0 L 7.953125 -55.265625 L 22.703125 -55.265625 C 26.472656 -55.265625 29.832031 -54.601562 32.78125 -53.28125 C 35.738281 -51.957031 38.054688 -50.003906 39.734375 -47.421875 C 41.421875 -44.847656 42.265625 -41.753906 42.265625 -38.140625 C 42.265625 -34.722656 41.515625 -31.585938 40.015625 -28.734375 C 38.515625 -25.878906 36.207031 -23.71875 33.09375 -22.25 L 47.015625 0 Z M 23.390625 -27.515625 C 27.367188 -27.515625 30.234375 -28.554688 31.984375 -30.640625 C 33.742188 -32.734375 34.625 -35.132812 34.625 -37.84375 C 34.625 -39.46875 34.253906 -41.066406 33.515625 -42.640625 C 32.773438 -44.222656 31.601562 -45.535156 30 -46.578125 C 28.394531 -47.628906 26.367188 -48.15625 23.921875 -48.15625 L 15.359375 -48.15625 L 15.359375 -27.515625 Z M 23.390625 -27.515625 "/></g></g></g><g fill="#3b1344" fill-opacity="1"><g transform="translate(300.671062, 206.961315)"><g><path d="M 36.921875 -14.515625 L 15.671875 -14.515625 L 9.78125 0 L 2.453125 0 L 26.59375 -57.5625 L 27.0625 -57.5625 L 51.21875 0 L 42.65625 0 Z M 34.390625 -20.9375 L 26.53125 -41.125 L 18.34375 -20.9375 Z M 34.390625 -20.9375 "/></g></g></g><g transform="matrix(1, 0, 0, 1, 25, 140)"><g clip-path="url(#33a355f365)"><g clip-path="url(#744603ac42)"><path fill="#3b1344" d="M 0.898438 39.46875 C 0.898438 61.03125 18.375 78.507812 39.933594 78.507812 C 48.777344 78.507812 56.929688 75.566406 63.476562 70.609375 L 65.4375 72.574219 C 64.21875 74.496094 64.445312 77.074219 66.121094 78.753906 L 87.496094 100.121094 C 89.4375 102.066406 92.589844 102.066406 94.535156 100.121094 L 100.589844 94.066406 C 102.53125 92.125 102.53125 88.972656 100.589844 87.027344 L 79.21875 65.65625 C 77.539062 63.976562 74.964844 63.753906 73.039062 64.972656 L 71.074219 63.011719 C 76.03125 56.464844 78.972656 48.3125 78.972656 39.46875 C 78.972656 17.910156 61.496094 0.433594 39.9375 0.433594 C 18.378906 0.433594 0.898438 17.910156 0.898438 39.46875 Z M 63.246094 16.15625 C 69.472656 22.382812 72.902344 30.664062 72.902344 39.46875 C 72.902344 48.273438 69.472656 56.554688 63.246094 62.78125 C 57.019531 69.007812 48.738281 72.4375 39.933594 72.4375 C 31.128906 72.4375 22.847656 69.007812 16.621094 62.78125 C 10.394531 56.554688 6.964844 48.273438 6.964844 39.46875 C 6.964844 30.664062 10.394531 22.382812 16.621094 16.15625 C 22.847656 9.929688 31.128906 6.5 39.933594 6.5 C 48.738281 6.5 57.019531 9.929688 63.246094 16.15625 Z M 63.246094 16.15625 " fill-opacity="1" fill-rule="nonzero"/></g><path fill="#3b1344" d="M 14.597656 35.144531 C 15.027344 35.144531 15.4375 35.226562 15.835938 35.390625 C 16.230469 35.554688 16.582031 35.789062 16.882812 36.09375 C 17.1875 36.394531 17.417969 36.746094 17.582031 37.140625 C 17.746094 37.535156 17.828125 37.949219 17.828125 38.378906 C 17.828125 38.804688 17.746094 39.21875 17.582031 39.613281 C 17.417969 40.007812 17.1875 40.359375 16.882812 40.660156 C 16.582031 40.964844 16.230469 41.199219 15.835938 41.363281 C 15.4375 41.527344 15.027344 41.609375 14.597656 41.609375 C 14.171875 41.609375 13.757812 41.527344 13.363281 41.363281 C 12.964844 41.199219 12.617188 40.964844 12.3125 40.660156 C 12.011719 40.359375 11.777344 40.007812 11.613281 39.613281 C 11.449219 39.21875 11.367188 38.804688 11.367188 38.378906 C 11.367188 37.949219 11.449219 37.535156 11.613281 37.140625 C 11.777344 36.746094 12.011719 36.394531 12.3125 36.09375 C 12.617188 35.789062 12.964844 35.554688 13.363281 35.390625 C 13.757812 35.226562 14.171875 35.144531 14.597656 35.144531 Z M 14.597656 35.144531 " fill-opacity="1" fill-rule="nonzero"/><path fill="#3b1344" d="M 12.796875 46.789062 C 12.871094 47.15625 14.742188 55.847656 22.648438 62.09375 C 24.09375 63.234375 26.195312 62.988281 27.335938 61.539062 C 27.820312 60.925781 28.054688 60.199219 28.054688 59.472656 C 28.054688 58.488281 27.617188 57.511719 26.78125 56.851562 C 20.875 52.1875 19.359375 45.558594 19.328125 45.425781 C 18.949219 43.628906 17.1875 42.476562 15.386719 42.847656 C 13.582031 43.21875 12.417969 44.984375 12.792969 46.789062 Z M 12.796875 46.789062 " fill-opacity="1" fill-rule="nonzero"/><g clip-path="url(#5f162af2ec)"><g clip-path="url(#04b6b90866)"><g clip-path="url(#b94c466853)"><path fill="#ffffff" d="M 62.839844 73.714844 L 67.902344 68.652344 C 68.230469 68.320312 68.613281 68.066406 69.042969 67.890625 C 69.472656 67.710938 69.921875 67.621094 70.386719 67.621094 C 70.851562 67.621094 71.300781 67.710938 71.730469 67.890625 C 72.160156 68.066406 72.542969 68.320312 72.871094 68.652344 L 77.933594 73.714844 C 78.261719 74.042969 78.515625 74.421875 78.695312 74.855469 C 78.875 75.285156 78.964844 75.730469 78.964844 76.199219 C 78.964844 76.664062 78.875 77.113281 78.695312 77.542969 C 78.515625 77.972656 78.261719 78.351562 77.933594 78.683594 L 72.871094 83.746094 C 72.542969 84.074219 72.160156 84.328125 71.730469 84.507812 C 71.300781 84.683594 70.851562 84.773438 70.386719 84.773438 C 69.921875 84.773438 69.472656 84.683594 69.042969 84.507812 C 68.613281 84.328125 68.230469 84.074219 67.902344 83.746094 L 62.839844 78.683594 C 62.511719 78.351562 62.257812 77.972656 62.078125 77.542969 C 61.898438 77.113281 61.8125 76.664062 61.8125 76.199219 C 61.8125 75.730469 61.898438 75.285156 62.078125 74.855469 C 62.257812 74.421875 62.511719 74.042969 62.839844 73.714844 Z M 62.839844 73.714844 " fill-opacity="1" fill-rule="nonzero"/></g></g></g><g clip-path="url(#4b2da8433e)"><g clip-path="url(#c04d6c7fa3)"><g clip-path="url(#edad1e763c)"><path fill="#ffffff" d="M 71.015625 81.636719 L 64.828125 76.066406 C 64.628906 75.890625 64.449219 75.691406 64.289062 75.476562 C 64.128906 75.261719 63.988281 75.035156 63.875 74.792969 C 63.757812 74.550781 63.667969 74.296875 63.601562 74.039062 C 63.535156 73.777344 63.496094 73.515625 63.480469 73.246094 C 63.46875 72.980469 63.480469 72.710938 63.515625 72.445312 C 63.554688 72.179688 63.621094 71.921875 63.710938 71.667969 C 63.796875 71.417969 63.910156 71.175781 64.050781 70.945312 C 64.1875 70.714844 64.34375 70.5 64.523438 70.300781 L 70.09375 64.113281 C 70.273438 63.914062 70.46875 63.734375 70.683594 63.574219 C 70.898438 63.414062 71.128906 63.273438 71.371094 63.160156 C 71.613281 63.042969 71.863281 62.953125 72.121094 62.886719 C 72.382812 62.820312 72.648438 62.78125 72.914062 62.765625 C 73.183594 62.75 73.449219 62.765625 73.714844 62.800781 C 73.980469 62.839844 74.238281 62.90625 74.492188 62.996094 C 74.746094 63.082031 74.984375 63.195312 75.214844 63.335938 C 75.445312 63.472656 75.664062 63.628906 75.863281 63.808594 L 82.050781 69.378906 C 82.25 69.558594 82.429688 69.753906 82.589844 69.96875 C 82.75 70.183594 82.886719 70.414062 83.003906 70.65625 C 83.117188 70.898438 83.210938 71.148438 83.273438 71.40625 C 83.339844 71.667969 83.382812 71.933594 83.394531 72.199219 C 83.410156 72.46875 83.398438 72.734375 83.359375 73 C 83.320312 73.265625 83.257812 73.523438 83.167969 73.777344 C 83.078125 74.03125 82.964844 74.269531 82.828125 74.5 C 82.691406 74.730469 82.53125 74.949219 82.351562 75.148438 L 76.785156 81.335938 C 76.605469 81.535156 76.40625 81.714844 76.191406 81.875 C 75.976562 82.035156 75.75 82.171875 75.507812 82.289062 C 75.265625 82.402344 75.011719 82.492188 74.753906 82.558594 C 74.492188 82.625 74.230469 82.667969 73.960938 82.679688 C 73.695312 82.695312 73.425781 82.683594 73.160156 82.644531 C 72.894531 82.605469 72.636719 82.542969 72.382812 82.453125 C 72.132812 82.363281 71.890625 82.25 71.660156 82.113281 C 71.429688 81.976562 71.214844 81.816406 71.015625 81.636719 Z M 71.015625 81.636719 " fill-opacity="1" fill-rule="nonzero"/></g></g></g><g clip-path="url(#efd9772ed2)"><g clip-path="url(#707f203c98)"><g transform="matrix(1, 0, 0, 1, 71, 59)"><g clip-path="url(#ad2cdcec63)"><g clip-path="url(#41bfd41426)"><g clip-path="url(#167e9d51b5)"><path fill="#ffffff" d="M 0.128906 4.089844 L 3.960938 0.261719 L 11.472656 7.769531 L 7.640625 11.601562 Z M 0.128906 4.089844 " fill-opacity="1" fill-rule="nonzero"/></g></g></g></g></g></g></g></g></svg>