<svg width="40" height="40" viewBox="0 0 40 40" fill="none" xmlns="http://www.w3.org/2000/svg">
<path fill-rule="evenodd" clip-rule="evenodd" d="M24.5833 12.0226C24.5833 11.1412 25.2958 10.418 26.1868 10.418H30.5753C31.4022 10.418 32.5333 10.5633 33.4079 11.374C34.2621 12.1658 34.8984 13.2326 35.3674 14.2705C35.8423 15.3215 36.1814 16.4235 36.4049 17.3598C36.5638 18.0257 36.8489 18.5948 37.2521 19.0114C38.2128 20.0043 38.7499 21.3318 38.7499 22.7134V26.4474C38.7499 28.18 37.3453 29.5846 35.6127 29.5846V27.0846C35.9646 27.0846 36.2499 26.7993 36.2499 26.4474V22.7134C36.2499 21.9806 35.965 21.2765 35.4555 20.7499C34.6718 19.94 34.2105 18.9345 33.9732 17.9402C33.7766 17.1166 33.4832 16.1721 33.0892 15.2999C32.6891 14.4146 32.2201 13.6818 31.7084 13.2075C31.5292 13.0413 31.1854 12.918 30.5753 12.918H26.1868C26.6861 12.918 27.0833 12.5123 27.0833 12.0226H24.5833Z" fill="#434F64"/>
<path fill-rule="evenodd" clip-rule="evenodd" d="M9.99992 29.1673C10.9204 29.1673 11.6666 28.4211 11.6666 27.5007C11.6666 26.5802 10.9204 25.834 9.99992 25.834C9.07944 25.834 8.33325 26.5802 8.33325 27.5007C8.33325 28.4211 9.07944 29.1673 9.99992 29.1673ZM9.99992 31.6673C12.3011 31.6673 14.1666 29.8018 14.1666 27.5007C14.1666 25.1995 12.3011 23.334 9.99992 23.334C7.69873 23.334 5.83325 25.1995 5.83325 27.5007C5.83325 29.8018 7.69873 31.6673 9.99992 31.6673Z" fill="#434F64"/>
<path fill-rule="evenodd" clip-rule="evenodd" d="M18.3334 29.1673C19.2539 29.1673 20.0001 28.4211 20.0001 27.5007C20.0001 26.5802 19.2539 25.834 18.3334 25.834C17.4129 25.834 16.6667 26.5802 16.6667 27.5007C16.6667 28.4211 17.4129 29.1673 18.3334 29.1673ZM18.3334 31.6673C20.6346 31.6673 22.5001 29.8018 22.5001 27.5007C22.5001 25.1995 20.6346 23.334 18.3334 23.334C16.0322 23.334 14.1667 25.1995 14.1667 27.5007C14.1667 29.8018 16.0322 31.6673 18.3334 31.6673Z" fill="#434F64"/>
<path fill-rule="evenodd" clip-rule="evenodd" d="M31.6667 29.1673C32.5871 29.1673 33.3333 28.4211 33.3333 27.5007C33.3333 26.5802 32.5871 25.834 31.6667 25.834C30.7462 25.834 30 26.5802 30 27.5007C30 28.4211 30.7462 29.1673 31.6667 29.1673ZM31.6667 31.6673C33.9679 31.6673 35.8333 29.8018 35.8333 27.5007C35.8333 25.1995 33.9679 23.334 31.6667 23.334C29.3655 23.334 27.5 25.1995 27.5 27.5007C27.5 29.8018 29.3655 31.6673 31.6667 31.6673Z" fill="#434F64"/>
<path fill-rule="evenodd" clip-rule="evenodd" d="M1.25 10.0007C1.25 8.38982 2.55584 7.08398 4.16667 7.08398H24.1667C25.7775 7.08398 27.0833 8.38982 27.0833 10.0007V26.6673C27.0833 28.2781 25.7775 29.584 24.1667 29.584C23.4763 29.584 22.9167 29.0243 22.9167 28.334C22.9167 27.6436 23.4763 27.084 24.1667 27.084C24.3968 27.084 24.5833 26.8974 24.5833 26.6673V10.0007C24.5833 9.77053 24.3968 9.58398 24.1667 9.58398H4.16667C3.93655 9.58398 3.75 9.77053 3.75 10.0007V26.6673C3.75 26.8974 3.93655 27.084 4.16667 27.084C4.85702 27.084 5.41667 27.6436 5.41667 28.334C5.41667 29.0243 4.85702 29.584 4.16667 29.584C2.55584 29.584 1.25 28.2781 1.25 26.6673V10.0007Z" fill="#434F64"/>
<path opacity="0.4" fill-rule="evenodd" clip-rule="evenodd" d="M32.0201 17.0215C32.2154 16.8263 32.2154 16.5097 32.0201 16.3144C31.8249 16.1192 31.5083 16.1192 31.313 16.3144L30.5428 17.0846H25.8333V19.5846H35.8333V17.0846H31.957L32.0201 17.0215Z" fill="#434F64"/>
<path opacity="0.4" fill-rule="evenodd" clip-rule="evenodd" d="M5 19.166C5 18.4757 5.51301 17.916 6.14583 17.916H22.1875C22.8203 17.916 23.3333 18.4757 23.3333 19.166C23.3333 19.8564 22.8203 20.416 22.1875 20.416H6.14583C5.51301 20.416 5 19.8564 5 19.166Z" fill="#434F64"/>
</svg>
