<svg width="547" height="731" viewBox="0 0 547 731" fill="none" xmlns="http://www.w3.org/2000/svg">
<path d="M127.001 731.25V592.087C126.921 586.9 130.668 576.615 146.302 576.97C161.936 577.326 225.516 577.118 255.352 576.97C261.625 577.267 273.446 574.791 270.551 562.52V434.25" stroke="url(#paint0_linear_488_7150)" stroke-width="3"/>
<path d="M422.999 731.25V592.087C423.084 586.9 419.128 576.615 402.626 576.97C386.123 577.326 319.011 577.118 287.517 576.97C280.896 577.267 268.418 574.791 271.474 562.52V434.25" stroke="url(#paint1_linear_488_7150)" stroke-width="3"/>
<path d="M162.001 273V348.439C161.94 351.25 164.777 356.826 176.611 356.633C188.444 356.44 236.571 356.553 259.155 356.633C263.903 356.473 272.852 357.814 270.66 364.466V434" stroke="#D8EAFF" stroke-width="3"/>
<path d="M386.999 271V347.376C387.064 350.222 384.045 355.867 371.451 355.672C358.857 355.477 307.64 355.591 283.605 355.672C278.552 355.509 269.029 356.868 271.361 363.603V434" stroke="#D8EAFF" stroke-width="3"/>
<path d="M241 461.647L246.386 467.532L272.528 438.972L267.141 433.087L241 461.647Z" fill="#FFBE07"/>
<path d="M253.502 459.81L258.889 465.695L285.03 437.135L279.644 431.25L253.502 459.81Z" fill="#211F1F"/>
<path d="M257.226 479.365L262.613 485.25L288.754 456.69L283.368 450.805L257.226 479.365Z" fill="#211F1F"/>
<path d="M255.346 469.569L260.733 475.453L286.874 446.894L281.488 441.009L255.346 469.569Z" fill="#FFBE07"/>
<path d="M269.716 477.493L275.097 483.371L301.252 454.795L295.819 448.917L269.716 477.493Z" fill="#FFBE07"/>
<path d="M-24 296.25H139.602C149.198 297.126 162.948 302.817 161.948 340.25" stroke="#D8EAFF" stroke-width="3"/>
<path d="M570 296.25H409.037C399.596 297.146 386.067 302.966 387.051 341.25" stroke="#D8EAFF" stroke-width="3"/>
<g opacity="0.7">
<rect x="92" y="606.25" width="63" height="50" rx="20" fill="white"/>
<g clip-path="url(#clip0_488_7150)">
<path d="M119.559 617.96C121.074 616.328 123.185 615.315 125.519 615.315C128.621 615.315 131.328 617.103 132.769 619.757C134.022 619.179 135.409 618.857 136.868 618.857C142.463 618.857 147 623.586 147 629.42C147 635.254 142.463 639.983 136.868 639.983C136.197 639.983 135.529 639.915 134.872 639.777C133.602 642.117 131.183 643.698 128.407 643.698C127.245 643.698 126.145 643.421 125.166 642.928C123.88 646.056 120.882 648.249 117.387 648.249C113.749 648.249 110.647 645.87 109.457 642.533C108.937 642.647 108.398 642.706 107.845 642.706C103.512 642.706 100 639.039 100 634.515C100 631.483 101.578 628.836 103.923 627.419C103.44 626.272 103.171 625.005 103.171 623.673C103.171 618.47 107.259 614.252 112.3 614.252C115.26 614.252 117.891 615.706 119.559 617.96Z" fill="#00A1E0"/>
<path d="M106.807 631.881C106.778 631.96 106.818 631.977 106.828 631.991C106.916 632.057 107.006 632.105 107.096 632.158C107.575 632.421 108.028 632.498 108.501 632.498C109.466 632.498 110.064 631.968 110.064 631.115V631.098C110.064 630.309 109.389 630.023 108.754 629.816L108.672 629.788C108.194 629.628 107.782 629.489 107.782 629.164V629.147C107.782 628.869 108.023 628.664 108.396 628.664C108.811 628.664 109.304 628.807 109.622 628.988C109.622 628.988 109.715 629.05 109.749 628.957C109.767 628.907 109.928 628.46 109.945 628.411C109.963 628.359 109.931 628.32 109.898 628.299C109.536 628.072 109.035 627.916 108.517 627.916L108.42 627.917C107.538 627.917 106.922 628.467 106.922 629.257V629.274C106.922 630.106 107.602 630.376 108.238 630.564L108.341 630.596C108.805 630.744 109.204 630.87 109.204 631.208V631.225C109.204 631.533 108.945 631.763 108.526 631.763C108.363 631.763 107.844 631.76 107.284 631.393C107.216 631.353 107.177 631.323 107.124 631.29C107.097 631.272 107.028 631.241 106.998 631.335L106.807 631.881ZM120.922 631.881C120.892 631.96 120.932 631.977 120.942 631.991C121.03 632.057 121.12 632.105 121.21 632.158C121.689 632.421 122.142 632.498 122.615 632.498C123.579 632.498 124.178 631.968 124.178 631.115V631.098C124.178 630.309 123.503 630.023 122.868 629.816L122.786 629.788C122.308 629.628 121.896 629.489 121.896 629.164V629.147C121.896 628.869 122.137 628.664 122.51 628.664C122.925 628.664 123.418 628.807 123.735 628.988C123.735 628.988 123.829 629.05 123.863 628.957C123.881 628.907 124.042 628.46 124.059 628.411C124.077 628.359 124.045 628.32 124.012 628.299C123.65 628.072 123.149 627.916 122.631 627.916L122.534 627.917C121.652 627.917 121.036 628.467 121.036 629.257V629.274C121.036 630.106 121.716 630.376 122.352 630.564L122.455 630.596C122.919 630.744 123.319 630.87 123.319 631.208V631.225C123.319 631.533 123.059 631.763 122.639 631.763C122.477 631.763 121.958 631.76 121.398 631.393C121.33 631.353 121.29 631.324 121.239 631.29C121.221 631.279 121.14 631.246 121.112 631.335L120.922 631.881ZM130.557 630.21C130.557 630.692 130.47 631.072 130.298 631.34C130.129 631.606 129.873 631.735 129.515 631.735C129.157 631.735 128.902 631.607 128.735 631.34C128.566 631.072 128.481 630.692 128.481 630.21C128.481 629.728 128.566 629.349 128.735 629.083C128.902 628.82 129.157 628.692 129.515 628.692C129.873 628.692 130.129 628.82 130.299 629.083C130.47 629.349 130.557 629.728 130.557 630.21ZM131.362 629.316C131.283 629.04 131.159 628.796 130.995 628.593C130.831 628.39 130.624 628.227 130.377 628.108C130.132 627.989 129.841 627.929 129.515 627.929C129.188 627.929 128.898 627.989 128.652 628.108C128.406 628.227 128.198 628.39 128.033 628.593C127.87 628.797 127.747 629.04 127.667 629.316C127.589 629.59 127.549 629.891 127.549 630.21C127.549 630.529 127.589 630.83 127.667 631.103C127.747 631.379 127.869 631.622 128.034 631.826C128.198 632.029 128.406 632.192 128.652 632.307C128.898 632.423 129.188 632.482 129.515 632.482C129.841 632.482 130.131 632.423 130.377 632.307C130.623 632.192 130.831 632.029 130.995 631.826C131.159 631.623 131.283 631.38 131.362 631.103C131.441 630.829 131.48 630.528 131.48 630.21C131.48 629.891 131.441 629.59 131.362 629.316ZM137.97 631.606C137.943 631.525 137.868 631.556 137.868 631.556C137.751 631.602 137.626 631.645 137.493 631.667C137.359 631.688 137.211 631.699 137.052 631.699C136.663 631.699 136.353 631.579 136.132 631.343C135.909 631.106 135.785 630.724 135.786 630.206C135.788 629.735 135.897 629.381 136.095 629.111C136.291 628.842 136.59 628.705 136.988 628.705C137.32 628.705 137.573 628.744 137.838 628.831C137.838 628.831 137.902 628.859 137.932 628.773C138.002 628.571 138.054 628.426 138.129 628.204C138.151 628.141 138.099 628.114 138.08 628.107C137.975 628.065 137.729 627.996 137.543 627.967C137.369 627.939 137.165 627.925 136.939 627.925C136.601 627.925 136.3 627.984 136.042 628.103C135.785 628.222 135.567 628.385 135.394 628.588C135.221 628.792 135.09 629.035 135.002 629.311C134.915 629.585 134.871 629.887 134.871 630.206C134.871 630.896 135.051 631.453 135.407 631.862C135.763 632.271 136.298 632.48 136.995 632.48C137.408 632.48 137.831 632.393 138.135 632.269C138.135 632.269 138.193 632.24 138.168 632.17L137.97 631.606ZM139.378 629.748C139.416 629.48 139.488 629.257 139.598 629.083C139.765 628.82 140.02 628.675 140.377 628.675C140.735 628.675 140.971 628.82 141.14 629.083C141.253 629.257 141.302 629.49 141.321 629.748H139.378ZM142.088 629.159C142.019 628.892 141.85 628.623 141.739 628.5C141.563 628.305 141.392 628.169 141.222 628.093C141 627.994 140.733 627.929 140.441 627.929C140.101 627.929 139.793 627.988 139.542 628.11C139.291 628.232 139.08 628.398 138.915 628.605C138.75 628.811 138.625 629.056 138.546 629.335C138.466 629.613 138.426 629.915 138.426 630.234C138.426 630.558 138.468 630.861 138.55 631.133C138.633 631.407 138.766 631.648 138.945 631.848C139.124 632.049 139.354 632.207 139.63 632.317C139.904 632.427 140.237 632.483 140.619 632.483C141.406 632.48 141.82 632.299 141.991 632.201C142.021 632.184 142.05 632.153 142.013 632.066L141.835 631.551C141.809 631.474 141.733 631.502 141.733 631.502C141.538 631.577 141.261 631.711 140.615 631.71C140.192 631.709 139.879 631.58 139.683 631.379C139.481 631.173 139.383 630.87 139.365 630.442L142.09 630.445C142.09 630.445 142.161 630.444 142.169 630.372C142.171 630.341 142.263 629.793 142.088 629.159ZM117.561 629.748C117.6 629.48 117.671 629.257 117.781 629.083C117.948 628.82 118.202 628.675 118.56 628.675C118.917 628.675 119.154 628.82 119.324 629.083C119.435 629.257 119.484 629.49 119.504 629.748H117.561ZM120.27 629.159C120.201 628.892 120.033 628.623 119.922 628.5C119.746 628.305 119.575 628.169 119.405 628.093C119.182 627.994 118.916 627.929 118.624 627.929C118.285 627.929 117.975 627.988 117.725 628.11C117.474 628.232 117.263 628.398 117.098 628.605C116.932 628.811 116.808 629.056 116.729 629.335C116.65 629.613 116.609 629.915 116.609 630.234C116.609 630.558 116.65 630.861 116.733 631.133C116.816 631.407 116.948 631.648 117.128 631.848C117.307 632.049 117.537 632.207 117.813 632.317C118.087 632.427 118.419 632.483 118.802 632.483C119.588 632.48 120.003 632.299 120.173 632.201C120.204 632.184 120.232 632.153 120.196 632.066L120.019 631.551C119.991 631.474 119.916 631.502 119.916 631.502C119.721 631.577 119.444 631.711 118.797 631.71C118.375 631.709 118.062 631.58 117.866 631.379C117.664 631.173 117.566 630.87 117.548 630.442L120.272 630.445C120.272 630.445 120.344 630.444 120.351 630.372C120.354 630.341 120.445 629.793 120.27 629.159ZM111.672 631.591C111.566 631.503 111.551 631.481 111.515 631.424C111.461 631.338 111.434 631.215 111.434 631.058C111.434 630.811 111.513 630.633 111.677 630.513C111.675 630.514 111.911 630.302 112.467 630.31C112.857 630.315 113.206 630.375 113.206 630.375V631.655H113.207C113.207 631.655 112.861 631.731 112.471 631.756C111.917 631.79 111.67 631.59 111.672 631.591ZM112.756 629.613C112.646 629.605 112.503 629.6 112.331 629.6C112.098 629.6 111.872 629.63 111.66 629.689C111.447 629.748 111.256 629.84 111.091 629.962C110.927 630.083 110.792 630.242 110.696 630.426C110.6 630.611 110.551 630.83 110.551 631.075C110.551 631.324 110.592 631.54 110.675 631.718C110.759 631.895 110.878 632.043 111.031 632.158C111.182 632.272 111.369 632.356 111.586 632.406C111.8 632.457 112.042 632.482 112.307 632.482C112.586 632.482 112.865 632.459 113.135 632.411C113.402 632.364 113.73 632.295 113.821 632.274C113.885 632.258 113.948 632.241 114.012 632.223C114.079 632.206 114.074 632.131 114.074 632.131L114.073 629.557C114.073 628.992 113.927 628.574 113.639 628.314C113.353 628.055 112.932 627.925 112.388 627.925C112.184 627.925 111.855 627.954 111.658 627.994C111.658 627.994 111.063 628.113 110.818 628.311C110.818 628.311 110.764 628.346 110.794 628.423L110.987 628.959C111.011 629.028 111.076 629.005 111.076 629.005C111.076 629.005 111.097 628.996 111.121 628.982C111.645 628.687 112.308 628.696 112.308 628.696C112.602 628.696 112.829 628.757 112.981 628.878C113.13 628.996 113.206 629.173 113.206 629.548V629.667C112.971 629.633 112.756 629.613 112.756 629.613ZM134.729 628.162C134.749 628.099 134.706 628.068 134.688 628.061C134.642 628.043 134.41 627.992 134.231 627.98C133.889 627.959 133.699 628.018 133.529 628.097C133.36 628.176 133.173 628.303 133.068 628.448V628.105C133.068 628.058 133.035 628.02 132.99 628.02H132.292C132.246 628.02 132.213 628.058 132.213 628.105V632.305C132.213 632.352 132.251 632.39 132.296 632.39H133.012C133.034 632.39 133.055 632.381 133.07 632.365C133.086 632.349 133.094 632.327 133.094 632.305V630.207C133.094 629.925 133.124 629.644 133.185 629.468C133.244 629.293 133.324 629.154 133.423 629.053C133.523 628.954 133.636 628.884 133.76 628.844C133.886 628.804 134.026 628.791 134.125 628.791C134.268 628.791 134.425 628.829 134.425 628.829C134.477 628.835 134.506 628.802 134.524 628.753C134.571 628.624 134.703 628.239 134.729 628.162Z" fill="white"/>
<path d="M128.011 626.217C127.924 626.189 127.845 626.17 127.742 626.15C127.637 626.131 127.513 626.121 127.371 626.121C126.879 626.121 126.49 626.265 126.218 626.549C125.947 626.831 125.762 627.261 125.67 627.826L125.637 628.016H125.018C125.018 628.016 124.943 628.013 124.927 628.098L124.826 628.684C124.818 628.739 124.842 628.775 124.914 628.775H125.516L124.905 632.298C124.858 632.581 124.803 632.815 124.742 632.992C124.682 633.166 124.624 633.297 124.552 633.392C124.482 633.484 124.417 633.551 124.303 633.591C124.209 633.623 124.101 633.639 123.982 633.639C123.917 633.639 123.829 633.627 123.764 633.614C123.7 633.6 123.665 633.586 123.617 633.564C123.617 633.564 123.546 633.537 123.518 633.61C123.496 633.67 123.335 634.126 123.316 634.182C123.297 634.238 123.324 634.281 123.358 634.294C123.438 634.324 123.498 634.343 123.607 634.37C123.759 634.407 123.886 634.409 124.006 634.409C124.257 634.409 124.486 634.372 124.675 634.301C124.865 634.23 125.031 634.106 125.179 633.939C125.337 633.758 125.437 633.568 125.532 633.309C125.626 633.053 125.708 632.734 125.772 632.363L126.386 628.775H127.283C127.283 628.775 127.358 628.777 127.374 628.692L127.476 628.107C127.482 628.051 127.46 628.016 127.387 628.016H126.516C126.52 627.996 126.56 627.679 126.66 627.381C126.702 627.255 126.783 627.151 126.85 627.081C126.917 627.012 126.994 626.963 127.079 626.934C127.165 626.905 127.264 626.891 127.371 626.891C127.453 626.891 127.534 626.901 127.595 626.914C127.679 626.933 127.712 626.942 127.734 626.949C127.823 626.977 127.835 626.95 127.853 626.906L128.061 626.315C128.082 626.251 128.029 626.224 128.011 626.217ZM115.841 632.305C115.841 632.352 115.808 632.39 115.762 632.39H115.04C114.994 632.39 114.962 632.352 114.962 632.305V626.297C114.962 626.25 114.994 626.212 115.04 626.212H115.762C115.808 626.212 115.841 626.25 115.841 626.297V632.305Z" fill="white"/>
</g>
</g>
<g opacity="0.7">
<rect x="446" y="269.25" width="56" height="56.3225" rx="20" fill="white"/>
<path d="M479 279.77H465.666C465.224 279.77 464.8 279.946 464.488 280.261C464.175 280.577 464 281.004 464 281.449V288.59L479 297.411L486.5 300.601L494 297.411V288.59L479 279.77Z" fill="#21A366"/>
<path d="M464 288.59H479V297.41H464V288.59Z" fill="#107C41"/>
<path d="M492.334 279.77H479V288.59H494V281.449C494 281.004 493.824 280.577 493.512 280.261C493.199 279.946 492.776 279.77 492.334 279.77Z" fill="#33C481"/>
<path d="M479 297.412H464V313.374C464 313.819 464.175 314.246 464.488 314.561C464.8 314.876 465.224 315.053 465.666 315.053H492.333C492.775 315.053 493.199 314.876 493.512 314.561C493.824 314.246 494 313.819 494 313.374V306.233L479 297.412Z" fill="#185C37"/>
<path d="M479 297.412H494V306.233H479V297.412Z" fill="#107C41"/>
<path opacity="0.1" d="M474.833 286.07H464V310.012H474.833C475.275 310.01 475.698 309.833 476.01 309.518C476.322 309.204 476.498 308.777 476.5 308.332V287.75C476.498 287.305 476.322 286.878 476.01 286.564C475.698 286.249 475.275 286.072 474.833 286.07Z" fill="black"/>
<path opacity="0.2" d="M473.583 287.33H464V311.272H473.583C474.025 311.27 474.448 311.093 474.76 310.778C475.072 310.463 475.248 310.037 475.25 309.592V289.01C475.248 288.565 475.072 288.138 474.76 287.824C474.448 287.509 474.025 287.331 473.583 287.33Z" fill="black"/>
<path opacity="0.2" d="M473.583 287.33H464V308.751H473.583C474.025 308.75 474.448 308.573 474.76 308.258C475.072 307.943 475.248 307.517 475.25 307.072V289.01C475.248 288.565 475.072 288.138 474.76 287.824C474.448 287.509 474.025 287.331 473.583 287.33Z" fill="black"/>
<path opacity="0.2" d="M472.333 287.33H464V308.751H472.333C472.775 308.75 473.198 308.573 473.51 308.258C473.822 307.943 473.998 307.517 474 307.072V289.01C473.998 288.565 473.822 288.138 473.51 287.824C473.198 287.509 472.775 287.331 472.333 287.33Z" fill="black"/>
<path d="M455.666 287.33H472.334C472.776 287.33 473.199 287.507 473.512 287.822C473.824 288.137 474 288.564 474 289.01V305.812C474 306.257 473.824 306.684 473.512 306.999C473.199 307.314 472.776 307.491 472.334 307.491H455.666C455.224 307.491 454.801 307.314 454.488 306.999C454.176 306.684 454 306.257 454 305.812V289.01C454 288.564 454.176 288.137 454.488 287.822C454.801 287.507 455.224 287.33 455.666 287.33Z" fill="#107C41"/>
<path d="M458.417 303.712L462.461 297.394L458.757 291.111H461.738L463.76 295.127C463.946 295.508 464.074 295.792 464.144 295.979H464.17C464.304 295.675 464.443 295.379 464.589 295.092L466.75 291.111H469.486L465.686 297.359L469.583 303.712H466.67L464.334 299.302C464.224 299.114 464.131 298.917 464.055 298.712H464.02C463.952 298.912 463.861 299.104 463.75 299.283L461.346 303.712H458.417Z" fill="white"/>
</g>
<path d="M162 273V9" stroke="url(#paint2_linear_488_7150)" stroke-width="3"/>
<path d="M387 297V0" stroke="url(#paint3_linear_488_7150)" stroke-width="3"/>
<g opacity="0.7">
<rect x="131" y="140.25" width="56" height="56" rx="20" fill="#3DD557"/>
<path fill-rule="evenodd" clip-rule="evenodd" d="M169.498 157.924C166.823 155.246 163.267 153.771 159.478 153.77C151.67 153.77 145.316 160.124 145.313 167.934C145.312 170.43 145.964 172.867 147.203 175.015L145.194 182.355L152.703 180.386C154.772 181.514 157.101 182.109 159.472 182.11H159.478C167.285 182.11 173.64 175.755 173.643 167.945C173.644 164.16 172.172 160.601 169.498 157.924ZM159.478 179.717H159.473C157.361 179.717 155.288 179.149 153.481 178.076L153.051 177.821L148.595 178.99L149.784 174.646L149.504 174.2C148.326 172.326 147.703 170.159 147.704 167.934C147.707 161.443 152.988 156.162 159.483 156.162C162.627 156.163 165.583 157.389 167.806 159.615C170.029 161.84 171.252 164.798 171.251 167.944C171.248 174.436 165.967 179.717 159.478 179.717ZM165.936 170.9C165.582 170.723 163.842 169.866 163.517 169.748C163.193 169.63 162.957 169.571 162.721 169.925C162.485 170.28 161.807 171.077 161.6 171.313C161.394 171.549 161.187 171.579 160.834 171.402C160.479 171.225 159.339 170.851 157.987 169.645C156.935 168.707 156.225 167.548 156.018 167.193C155.812 166.839 155.996 166.647 156.173 166.471C156.333 166.312 156.527 166.057 156.704 165.851C156.881 165.644 156.94 165.496 157.058 165.26C157.176 165.024 157.117 164.817 157.029 164.64C156.94 164.463 156.232 162.721 155.938 162.012C155.65 161.322 155.358 161.415 155.141 161.404C154.935 161.394 154.699 161.392 154.463 161.392C154.227 161.392 153.844 161.48 153.519 161.835C153.195 162.189 152.28 163.045 152.28 164.788C152.28 166.53 153.548 168.213 153.725 168.449C153.902 168.685 156.221 172.26 159.772 173.793C160.616 174.158 161.275 174.376 161.789 174.539C162.637 174.808 163.409 174.77 164.019 174.679C164.699 174.577 166.113 173.823 166.408 172.996C166.703 172.169 166.703 171.461 166.614 171.313C166.526 171.166 166.29 171.077 165.936 170.9Z" fill="white"/>
</g>
<g opacity="0.7">
<g clip-path="url(#clip1_488_7150)">
<path d="M359 134.25H415V190.25H359" fill="white"/>
<path d="M367.312 155.031V173.734C367.312 175.922 368.406 177.016 370.594 177.016H376.281V155.031" fill="#4285F4"/>
<path d="M397.719 155.031V177.016H403.406C405.594 177.016 406.688 175.922 406.688 173.734V155.031" fill="#34A853"/>
<path d="M397.281 162.141V150.547L400.344 148.251C402.969 146.282 406.688 148.469 406.688 151.532V155.032" fill="#FBBC04"/>
<path d="M375.844 161.484V149.891L387 158.312L397.719 150.219V161.812L387 169.906" fill="#EA4335"/>
<path d="M367.312 155.031V151.531C367.312 148.36 371.031 146.281 373.656 148.25L376.281 150.219V161.813" fill="#C5221F"/>
</g>
</g>
<g opacity="0.7" clip-path="url(#clip2_488_7150)">
<path d="M470.667 607.25H397.333C395.492 607.25 394 608.742 394 610.583V643.917C394 645.758 395.492 647.25 397.333 647.25H470.667C472.508 647.25 474 645.758 474 643.917V610.583C474 608.742 472.508 607.25 470.667 607.25Z" fill="white"/>
<path d="M468.321 620.467V636.742L466.069 638.941V623.014L468.321 620.467Z" fill="#E79225"/>
<path d="M453.56 620.48L451.228 623.014L451.348 623.175L465.975 623.121L466.109 623.014L468.321 620.467L453.56 620.48Z" fill="#FFF16D"/>
<path d="M451.228 623.014H466.109V638.954H451.228V623.014Z" fill="url(#paint4_linear_488_7150)"/>
<path d="M463.843 628.751C463.548 628.014 463.106 627.344 462.529 626.767C461.98 626.204 461.363 625.775 460.666 625.493C459.982 625.212 459.245 625.064 458.44 625.064C457.636 625.064 456.885 625.212 456.202 625.493C455.504 625.775 454.888 626.204 454.338 626.767C453.761 627.344 453.332 628.014 453.038 628.751C452.743 629.489 452.609 630.293 452.609 631.178C452.609 632.036 452.756 632.84 453.051 633.591C453.344 634.342 453.786 635.027 454.351 635.602C454.888 636.152 455.504 636.567 456.188 636.849C456.872 637.13 457.636 637.278 458.454 637.278C459.245 637.278 459.982 637.13 460.666 636.849C461.35 636.567 461.98 636.152 462.529 635.602C463.106 635.012 463.548 634.342 463.843 633.604C464.138 632.867 464.286 632.049 464.286 631.191C464.286 630.293 464.138 629.489 463.843 628.751ZM460.773 634.007C460.197 634.69 459.433 635.039 458.44 635.039C457.448 635.039 456.671 634.69 456.094 634.007C455.518 633.323 455.236 632.371 455.236 631.164C455.236 629.931 455.531 628.979 456.094 628.282C456.671 627.585 457.435 627.25 458.44 627.25C459.433 627.25 460.197 627.598 460.773 628.282C461.336 628.979 461.631 629.931 461.631 631.164C461.631 632.371 461.35 633.323 460.773 634.007Z" fill="white"/>
<path d="M449.766 619.139V619.219L451.67 633.846L450.557 636.929L450.41 636.822L448.452 622.799L448.493 622.611L449.713 619.219L449.766 619.139Z" fill="#009ADA"/>
<path d="M435.113 621.176L449.766 619.139L448.533 622.651L448.359 622.839L434.657 624.85L434.724 622.343L435.113 621.176Z" fill="#91C9ED"/>
<path d="M448.533 622.652L450.557 636.93L436.118 638.955L434.174 625.159L435.019 624.502L448.533 622.652Z" fill="url(#paint5_linear_488_7150)"/>
<path d="M446.079 625.387C446.012 624.944 445.865 624.609 445.624 624.381C445.422 624.207 445.181 624.113 444.9 624.113C444.833 624.113 444.752 624.113 444.672 624.127C444.296 624.18 444.015 624.355 443.84 624.636C443.706 624.837 443.653 625.092 443.653 625.387C443.653 625.494 443.666 625.615 443.68 625.735L444.202 629.449L440.046 630.066L439.524 626.352C439.456 625.923 439.309 625.588 439.068 625.36C438.867 625.172 438.625 625.079 438.357 625.079C438.29 625.079 438.223 625.079 438.156 625.092C437.767 625.146 437.472 625.32 437.285 625.601C437.151 625.803 437.097 626.057 437.097 626.352C437.097 626.459 437.11 626.58 437.124 626.714L438.545 636.38C438.612 636.823 438.759 637.158 439.027 637.386C439.229 637.56 439.47 637.641 439.765 637.641C439.845 637.641 439.926 637.641 440.006 637.627C440.368 637.574 440.636 637.399 440.811 637.118C440.931 636.917 440.985 636.675 440.985 636.394C440.985 636.287 440.971 636.166 440.958 636.045L440.382 632.224L444.538 631.608L445.114 635.429C445.181 635.871 445.329 636.206 445.583 636.421C445.784 636.595 446.026 636.689 446.307 636.689C446.374 636.689 446.455 636.689 446.535 636.675C446.911 636.622 447.192 636.447 447.366 636.166C447.487 635.965 447.554 635.723 447.554 635.429C447.554 635.321 447.541 635.201 447.527 635.08L446.079 625.387Z" fill="white"/>
<path d="M421.398 615.412L416.183 627.8L416.893 633.243L416.933 633.23L422.792 620.051L422.765 619.769L421.505 615.586L421.398 615.412Z" fill="#66BF6B"/>
<path d="M421.398 615.412L422.779 620.051L435.676 625.829L435.716 625.802L434.617 621.459L421.398 615.412Z" fill="#98D0A0"/>
<path d="M422.752 619.957L435.716 625.802L429.857 639.088L416.893 633.243L422.752 619.957Z" fill="url(#paint6_linear_488_7150)"/>
<path d="M431.788 626.875C431.506 626.124 431.118 625.481 430.608 624.944C430.099 624.408 429.482 623.979 428.758 623.671C428.034 623.362 427.31 623.215 426.573 623.215H426.532C425.782 623.215 425.044 623.389 424.32 623.711C423.556 624.046 422.899 624.502 422.336 625.105C421.773 625.695 421.317 626.419 420.969 627.25C420.62 628.068 420.432 628.899 420.392 629.717V629.999C420.392 630.723 420.513 631.433 420.768 632.13C421.036 632.868 421.425 633.498 421.934 634.034C422.443 634.57 423.074 634.999 423.824 635.308C424.535 635.616 425.259 635.763 425.996 635.763H426.01C426.747 635.763 427.484 635.603 428.208 635.294C428.972 634.959 429.643 634.49 430.206 633.887C430.769 633.297 431.238 632.586 431.587 631.755C431.935 630.924 432.123 630.106 432.163 629.288V629.047C432.177 628.309 432.056 627.585 431.788 626.875ZM429.2 630.736C428.718 631.889 428.061 632.68 427.27 633.109C426.841 633.337 426.398 633.458 425.956 633.458C425.567 633.458 425.152 633.364 424.736 633.189C423.824 632.801 423.261 632.184 423.02 631.299C422.939 631.004 422.899 630.696 422.899 630.374C422.899 629.73 423.06 629.02 423.382 628.256C423.878 627.076 424.535 626.272 425.326 625.829C425.755 625.588 426.197 625.481 426.64 625.481C427.042 625.481 427.444 625.574 427.873 625.749C428.771 626.137 429.334 626.754 429.576 627.639C429.656 627.921 429.696 628.229 429.696 628.551C429.696 629.221 429.536 629.945 429.2 630.736Z" fill="white"/>
<path d="M415.15 617.518L417.268 631.702L416.303 636.689L416.169 636.515L414.104 622.813V622.545L415.016 617.759L415.15 617.518Z" fill="#760D16"/>
<path d="M399.679 624.851L400.684 619.837L415.15 617.518L414.172 622.626V622.961L399.853 624.985L399.679 624.851Z" fill="#EF463E"/>
<path d="M414.172 622.625L416.303 636.689L401.985 638.928L399.679 624.851L414.172 622.625Z" fill="url(#paint7_linear_488_7150)"/>
<path d="M412.63 634.449C412.523 634.315 412.362 634.221 412.174 634.154C411.986 634.087 411.758 634.06 411.477 634.06C411.222 634.06 410.927 634.087 410.605 634.141L406.825 634.784C406.865 634.489 407.012 634.114 407.267 633.645C407.549 633.122 407.978 632.492 408.527 631.768C408.671 631.573 408.818 631.38 408.97 631.191C409.037 631.097 409.144 630.977 409.278 630.802C410.15 629.663 410.672 628.738 410.887 628.014C411.008 627.598 411.075 627.183 411.101 626.767C411.115 626.646 411.115 626.539 411.115 626.432C411.115 626.137 411.088 625.842 411.034 625.547C410.994 625.279 410.927 625.064 410.833 624.89C410.739 624.716 410.632 624.582 410.498 624.501C410.351 624.407 410.123 624.367 409.841 624.367C409.613 624.367 409.332 624.394 408.997 624.448L404.626 625.198C404.103 625.292 403.701 625.44 403.46 625.681C403.259 625.869 403.165 626.11 403.165 626.378C403.165 626.445 403.165 626.526 403.178 626.606C403.245 626.981 403.433 627.25 403.741 627.384C403.929 627.464 404.143 627.504 404.411 627.504C404.586 627.504 404.787 627.491 405.001 627.451L408.648 626.807C408.648 626.874 408.661 626.941 408.661 626.995C408.662 627.224 408.621 627.451 408.541 627.665C408.433 627.974 408.165 628.403 407.723 628.952L407.16 629.649C406.168 630.843 405.471 631.862 405.042 632.706C404.733 633.296 404.532 633.859 404.411 634.436C404.344 634.771 404.304 635.079 404.304 635.387C404.304 635.602 404.318 635.816 404.358 636.018C404.411 636.313 404.479 636.554 404.572 636.742C404.666 636.929 404.8 637.077 404.948 637.157C405.095 637.238 405.296 637.264 405.591 637.264C405.953 637.264 406.449 637.211 407.079 637.104L411.048 636.42C411.745 636.299 412.241 636.125 412.523 635.897C412.75 635.709 412.871 635.455 412.871 635.16C412.871 635.079 412.858 634.999 412.844 634.918C412.817 634.744 412.75 634.583 412.63 634.449Z" fill="white"/>
</g>
<g opacity="0.7">
<g clip-path="url(#clip3_488_7150)">
<rect x="47" y="271.25" width="56" height="56" rx="20" fill="white"/>
<g clip-path="url(#clip4_488_7150)">
<path d="M98.6722 298.679L75.2456 275.252L51.8191 298.679C51.4518 299.047 51.2456 299.546 51.2456 300.067C51.2456 300.587 51.4518 301.087 51.8191 301.455L75.2456 324.882L98.6722 301.455C99.0394 301.087 99.2456 300.587 99.2456 300.067C99.2456 299.546 99.0394 299.047 98.6722 298.679ZM75.2456 307.402L67.9085 300.065L75.2456 292.727L82.5828 300.065L75.2456 307.402Z" fill="#2684FF"/>
<path d="M75.2456 292.777C72.9379 290.469 71.637 287.342 71.627 284.079C71.617 280.816 72.8988 277.681 75.1923 275.359L59.0884 291.362L67.8261 300.099L75.2456 292.777Z" fill="url(#paint8_linear_488_7150)"/>
<path d="M82.6021 300.045L75.2456 307.401C76.3935 308.549 77.3042 309.911 77.9255 311.41C78.5467 312.909 78.8665 314.516 78.8665 316.139C78.8665 317.762 78.5467 319.369 77.9255 320.868C77.3042 322.368 76.3935 323.73 75.2456 324.877L91.335 308.787L82.6021 300.045Z" fill="url(#paint9_linear_488_7150)"/>
</g>
</g>
</g>
<defs>
<linearGradient id="paint0_linear_488_7150" x1="199" y1="434.25" x2="199" y2="731.25" gradientUnits="userSpaceOnUse">
<stop stop-color="#D8EAFF"/>
<stop offset="0.605029" stop-color="#D8EAFF"/>
<stop offset="1" stop-color="#D8EAFF" stop-opacity="0.06"/>
</linearGradient>
<linearGradient id="paint1_linear_488_7150" x1="347" y1="434.25" x2="347" y2="731.25" gradientUnits="userSpaceOnUse">
<stop stop-color="#D8EAFF"/>
<stop offset="0.605029" stop-color="#D8EAFF"/>
<stop offset="1" stop-color="#D8EAFF" stop-opacity="0.06"/>
</linearGradient>
<linearGradient id="paint2_linear_488_7150" x1="162.5" y1="9" x2="162.5" y2="273" gradientUnits="userSpaceOnUse">
<stop stop-color="white" stop-opacity="0"/>
<stop offset="0.350881" stop-color="#D8EAFF" stop-opacity="0.57"/>
<stop offset="1" stop-color="#D8EAFF"/>
</linearGradient>
<linearGradient id="paint3_linear_488_7150" x1="387.5" y1="0" x2="387.5" y2="297" gradientUnits="userSpaceOnUse">
<stop stop-color="white" stop-opacity="0"/>
<stop offset="0.350881" stop-color="#D8EAFF" stop-opacity="0.57"/>
<stop offset="1" stop-color="#D8EAFF"/>
</linearGradient>
<linearGradient id="paint4_linear_488_7150" x1="458.668" y1="623.242" x2="458.668" y2="638.473" gradientUnits="userSpaceOnUse">
<stop offset="0.005618" stop-color="#FFE513"/>
<stop offset="1" stop-color="#FDB924"/>
</linearGradient>
<linearGradient id="paint5_linear_488_7150" x1="434.914" y1="624.852" x2="449.848" y2="636.846" gradientUnits="userSpaceOnUse">
<stop offset="0.005618" stop-color="#008CD2"/>
<stop offset="1" stop-color="#00649D"/>
</linearGradient>
<linearGradient id="paint6_linear_488_7150" x1="426.305" y1="625.271" x2="426.305" y2="638.616" gradientUnits="userSpaceOnUse">
<stop stop-color="#26A146"/>
<stop offset="1" stop-color="#008A52"/>
</linearGradient>
<linearGradient id="paint7_linear_488_7150" x1="406.949" y1="623.963" x2="409.245" y2="637.819" gradientUnits="userSpaceOnUse">
<stop stop-color="#D92231"/>
<stop offset="1" stop-color="#BA2234"/>
</linearGradient>
<linearGradient id="paint8_linear_488_7150" x1="73.9371" y1="285.309" x2="63.6923" y2="295.554" gradientUnits="userSpaceOnUse">
<stop offset="0.18" stop-color="#0052CC"/>
<stop offset="1" stop-color="#2684FF"/>
</linearGradient>
<linearGradient id="paint9_linear_488_7150" x1="76.6462" y1="314.739" x2="86.8717" y2="304.513" gradientUnits="userSpaceOnUse">
<stop offset="0.18" stop-color="#0052CC"/>
<stop offset="1" stop-color="#2684FF"/>
</linearGradient>
<clipPath id="clip0_488_7150">
<rect width="47" height="34" fill="white" transform="translate(100 614.25)"/>
</clipPath>
<clipPath id="clip1_488_7150">
<rect x="359" y="134.25" width="56" height="56" rx="20" fill="white"/>
</clipPath>
<clipPath id="clip2_488_7150">
<rect width="80" height="40" fill="white" transform="translate(394 607.25)"/>
</clipPath>
<clipPath id="clip3_488_7150">
<rect x="47" y="271.25" width="56" height="56" rx="20" fill="white"/>
</clipPath>
<clipPath id="clip4_488_7150">
<rect x="51" y="275.25" width="74" height="77" rx="20" fill="white"/>
</clipPath>
</defs>
</svg>
